<?xml version="1.0" encoding="UTF-8" standalone="no"?>
<svg
   xmlns:dc="http://purl.org/dc/elements/1.1/"
   xmlns:cc="http://creativecommons.org/ns#"
   xmlns:rdf="http://www.w3.org/1999/02/22-rdf-syntax-ns#"
   xmlns:svg="http://www.w3.org/2000/svg"
   xmlns="http://www.w3.org/2000/svg"
   xmlns:sodipodi="http://sodipodi.sourceforge.net/DTD/sodipodi-0.dtd"
   xmlns:inkscape="http://www.inkscape.org/namespaces/inkscape"
   version="1.1"
   viewBox="73 73 60 50.000001"
   preserveAspectRatio="xMidYMid meet"
   id="svg2"
   inkscape:version="0.48.5 r10040"
   width="100%"
   height="100%"
   sodipodi:docname="meteor_famous_view_logo.svg"
   inkscape:export-filename="/Users/PEM/Desktop/meteor_famous_view_logo.png"
   inkscape:export-xdpi="360"
   inkscape:export-ydpi="360">
  <metadata
     id="metadata24">
    <rdf:RDF>
      <cc:Work
         rdf:about="">
        <dc:format>image/svg+xml</dc:format>
        <dc:type
           rdf:resource="http://purl.org/dc/dcmitype/StillImage" />
        <dc:title></dc:title>
      </cc:Work>
    </rdf:RDF>
  </metadata>
  <defs
     id="defs22" />
  <sodipodi:namedview
     pagecolor="#ffffff"
     bordercolor="#666666"
     borderopacity="1"
     objecttolerance="10"
     gridtolerance="10"
     guidetolerance="10"
     inkscape:pageopacity="0"
     inkscape:pageshadow="2"
     inkscape:window-width="1362"
     inkscape:window-height="723"
     id="namedview20"
     showgrid="false"
     inkscape:zoom="5.9"
     inkscape:cx="20.024626"
     inkscape:cy="11.873556"
     inkscape:window-x="4"
     inkscape:window-y="0"
     inkscape:window-maximized="1"
     inkscape:current-layer="svg2"
     fit-margin-top="0"
     fit-margin-left="0"
     fit-margin-right="0"
     fit-margin-bottom="0" />
  <g
     id="g3904"
     transform="matrix(1.544118,0,0,1.544118,-39.720614,-39.720615)">
    <path
       inkscape:connector-curvature="0"
       id="path3001"
       d="m 79.348107,81.099404 c 0.0099,8.021223 4.608365,24.361746 20.21875,24.281246 6.646063,-0.0343 12.031253,-5.385103 12.031253,-12.031246 0,-6.646138 -5.38533,-11.97692 -12.031253,-12.03125 -6.917489,-0.05655 -9.3471,4.414261 -12.90625,5.59375 -3.833804,1.270509 -7.312764,-6.027286 -7.3125,-5.8125 z m 2.40625,5.28125 c 1.221988,2.113262 4.881705,3.467012 6.875,1.4375 -1.397805,2.526118 -3.056644,7.49876 1.5625,12.906246 -4.696581,-2.320156 -8.468412,-12.568778 -8.4375,-14.343746 z"
       style="fill:#ffc200;fill-opacity:1;stroke:none" />
    <path
       inkscape:connector-curvature="0"
       id="path18-2"
       d="m 99.457329,83.300993 c -5.633057,0 -10.200777,4.49698 -10.200777,10.043099 0,5.151772 3.92622,9.380248 8.99997,9.958188 0.25152,0.0128 0.390667,-0.008 0.509427,-0.10916 0.0963,-0.0819 0.14556,-0.22202 0.14556,-0.33963 l 0,-5.979756 c -2.746467,-0.28568 -4.946537,-2.557062 -4.912387,-5.336915 0.0322,-2.655647 1.86123,-4.775566 4.28166,-5.276265 0.0644,-0.0132 0.11179,-0.03377 0.14556,0 0.0377,0.03726 0.0121,0.133423 0.0121,0.133423 l -0.18194,0.885442 c 0,0 -0.008,0.0557 -0.0242,0.07278 -0.0167,0.01708 -0.0358,0.02902 -0.0607,0.03639 -1.05147,0.329142 -2.00348,1.042638 -2.46226,1.904307 -0.3827,0.718445 -0.63072,1.254075 -0.63072,2.231795 0,2.104881 1.64959,4.031793 3.832867,4.293793 l 0,-6.646881 c 0,-0.693605 0.0397,-1.507726 0.44879,-2.061989 0.318668,-0.431611 0.870991,-0.691373 1.746631,-0.691373 1.25952,0 2.76773,0.913291 3.52965,2.911043 0.22978,0.603945 0.3662,1.369836 0.36388,2.195407 -0.007,2.771701 -2.16621,5.039213 -4.90026,5.336913 l 0,5.991886 c 0,0.15837 0.0418,0.28112 0.13342,0.35176 0.11023,0.0854 0.2126,0.12342 0.52156,0.097 0.11489,-0.0101 0.3306,-0.0443 0.42453,-0.0606 4.81176,-0.80577 8.46628,-4.930136 8.46628,-9.897538 0,-5.546502 -4.55597,-10.043093 -10.188661,-10.043093 z m 1.649601,4.172495 c -0.51933,0.04697 -0.74319,0.243267 -0.86118,0.521562 -0.118,0.278296 -0.14555,0.909895 -0.14555,1.176547 l 0,6.634747 c 1.25912,-0.16806 2.42353,-0.896702 3.15363,-2.049862 0.40793,-0.64353 0.62238,-1.49054 0.65498,-2.243922 0.0473,-1.103478 -0.28092,-1.994549 -0.71563,-2.704843 -0.43472,-0.710295 -1.21798,-1.413409 -2.08625,-1.334229 z"
       style="fill:#7a5d00;fill-opacity:0.94117647" />
    <path
       sodipodi:nodetypes="czcc"
       inkscape:connector-curvature="0"
       id="path3001-7-1"
       d="m 94.842206,81.136826 c -6.83137,2.355127 -7.091779,4.750036 -9.415325,4.198016 C 83.103335,84.782822 79.054568,76.31766 73,73 c 13.356192,4.515357 7.469372,10.736793 21.842206,8.136826 z"
       style="fill:#ffc200;fill-opacity:1;stroke:none" />
    <path
       sodipodi:nodetypes="ccc"
       inkscape:connector-curvature="0"
       id="path3883"
       d="m 79.051445,74.815735 c 7.283526,0.164686 8.358694,4.872808 12.979483,5.521554 -7.957012,0.986891 -7.652943,-4.348322 -12.979483,-5.521554 z"
       style="fill:#ffc200;fill-opacity:1;stroke:none" />
  </g>
</svg>
